{"title":"Lana Del Rey - Once Upon A Dream (Remix) from Maleficent","uid":11460824,"size":104979062,"categoryP":"video","categoryS":"music_videos","magnet":"?xt=urn:btih:e8d32235e4f391c504c478119922b957c9c05cb9&amp;dn=Lana+Del+Rey+-+Once+Upon+A+Dream+%28Remix%29+from+Maleficent&amp;tr=udp%3A%2F%2Ftracker.openbittorrent.com%3A80&amp;tr=udp%3A%2F%2Fopen.demonii.com%3A1337&amp;tr=udp%3A%2F%2Ftracker.coppersurfer.tk%3A6969&amp;tr=udp%3A%2F%2Fexodus.desync.com%3A6969","seeders":2,"leechers":0,"uploader":"MeRaDil","files":-1,"time":1415986257,"description":"LANA DEL REY - ONCE UPON A DREAM (REMIX)\n\n\n\nfrom Disney's Maleficent 2014\n &lt;a href=&quot;\nhttp://ultraimg.com/images/LanaDelRey.png&quot; rel=&quot;nofollow&quot; target=&quot;_NEW&quot;&gt;\nhttp://ultraimg.com/images/LanaDelRey.png&lt;/a&gt;\n\n\nPROMO MPEG4 MUSIC VID\nGeneral\nLana Del Rey -- Once Upon A Dream (Young Ruffian Remix) from Maleficent\nFormat                                   : MPEG-4\nFormat profile                           : Base Media\nCodec ID                                 : isom\nFile size                                : 100 MiB\nDuration                                 : 3mn 47s\nOverall bit rate                         : 3 689 Kbps\nMusicVid name                            : Once Upon A Dream (Young Ruffian Remix)\nPerformer                                : Lana Del Rey\nGenre                                    : Soundtrack\nContentType                              : Music Video\nRecorded date                            : 2014\nISRC                                     : The Promo Bay\nCopyright                                : Maleficent/Lana Del Rey\nCover                                    : Yes\nComment                                  : from Disney's Maleficent\nRating                                   : ***\nMake                                     : MeRaDil\noday                                     : 04-11-2014  USA\nrati                                     : (Binary)\nArtist url                               : http://lanadelrey.com\nlabel                                    : Walt Disney\nrelease                                  : USA . november 4 . 2014\nPart_ID                                  : Once Upon a Dream (Remix)\n\nVideo\nID                                       : 1\nFormat                                   : AVC\nFormat/Info                              : Advanced Video Codec\nFormat profile                           : &lt;a class=&quot;__cf_email__&quot; href=&quot;/cdn-cgi/l/email-protection&quot; data-cfemail=&quot;4c04252b240c0078627c&quot;&gt;[email&amp;#160;protected]&lt;/a&gt;&lt;script cf-hash='f9e31' type=&quot;text/javascript&quot;&gt;\n/* &lt;![CDATA[ */!function(){try{var t=&quot;currentScript&quot;in document?document.currentScript:function(){for(var t=document.getElementsByTagName(&quot;script&quot;),e=t.length;e--;)if(t[e].getAttribute(&quot;cf-hash&quot;))return t[e]}();if(t&amp;&amp;t.previousSibling){var e,r,n,i,c=t.previousSibling,a=c.getAttribute(&quot;data-cfemail&quot;);if(a){for(e=&quot;&quot;,r=parseInt(a.substr(0,2),16),n=2;a.length-n;n+=2)i=parseInt(a.substr(n,2),16)^r,e+=String.fromCharCode(i);e=document.createTextNode(e),c.parentNode.replaceChild(e,c)}}}catch(u){}}();/* ]]&gt; */&lt;/script&gt;\nFormat settings, CABAC                   : Yes\nFormat settings, ReFrames                : 2 frames\nCodec ID                                 : avc1\nCodec ID/Info                            : Advanced Video Coding\nDuration                                 : 3mn 47s\nBit rate                                 : 3 426 Kbps\nWidth                                    : 1 920 pixels\nHeight                                   : 1 080 pixels\nDisplay aspect ratio                     : 16:9\nFrame rate mode                          : Variable\nFrame rate                               : 23.976 fps\nMinimum frame rate                       : 23.974 fps\nMaximum frame rate                       : 23.981 fps\nColor space                              : YUV\nChroma subsampling                       : 4:2:0\nBit depth                                : 8 bits\nScan type                                : Progressive\nBits/(Pixel*Frame)                       : 0.069\nStream size                              : 92.9 MiB (93%)\n\nAudio\nID                                       : 2\nFormat                                   : AAC\nFormat/Info                              : Advanced Audio Codec\nFormat profile                           : LC\nCodec ID                                 : 40\nDuration                                 : 3mn 47s\nBit rate mode                            : Constant\nBit rate                                 : 256 Kbps\nChannel(s)                               : 2 channels\nChannel positions                        : Front: L R\nSampling rate                            : 44.1 KHz\nCompression mode                         : Lossy\nStream size                              : 6.95 MiB (7%)\n &lt;a href=&quot;\nhttps://thepiratebay.se/user/MeRaDil&quot; rel=&quot;nofollow&quot; target=&quot;_NEW&quot;&gt;\nhttps://thepiratebay.se/user/MeRaDil&lt;/a&gt;\n\nLana Del Rey * Maleficent * Promo\n\n:)","torrent":{"xt":"urn:btih:e8d32235e4f391c504c478119922b957c9c05cb9","amp;dn":"Lana+Del+Rey+-+Once+Upon+A+Dream+%28Remix%29+from+Maleficent","amp;tr":["udp%3A%2F%2Ftracker.openbittorrent.com%3A80","udp%3A%2F%2Fopen.demonii.com%3A1337","udp%3A%2F%2Ftracker.coppersurfer.tk%3A6969","udp%3A%2F%2Fexodus.desync.com%3A6969"],"infoHash":"e8d32235e4f391c504c478119922b957c9c05cb9","infoHashBuffer":{"type":"Buffer","data":[232,211,34,53,228,243,145,197,4,196,120,17,153,34,185,87,201,192,92,185]},"announce":[],"urlList":[]}}